<?xml version="1.0" encoding="utf-8"?>
<!-- Generator: Adobe Illustrator 17.0.0, SVG Export Plug-In . SVG Version: 6.00 Build 0)  -->
<!DOCTYPE svg PUBLIC "-//W3C//DTD SVG 1.1//EN" "http://www.w3.org/Graphics/SVG/1.1/DTD/svg11.dtd">
<svg version="1.1" id="Camada_1" xmlns="http://www.w3.org/2000/svg" xmlns:xlink="http://www.w3.org/1999/xlink" x="0px" y="0px"
	 width="421.043px" height="144.706px" viewBox="0 0 421.043 144.706" enable-background="new 0 0 421.043 144.706"
	 xml:space="preserve">
<g>
	<g>
		<circle fill="#34495E" cx="118.007" cy="27.611" r="4.529"/>
		<circle fill="#34495E" cx="130.297" cy="27.611" r="4.529"/>
		<circle fill="#34495E" cx="141.905" cy="27.611" r="4.529"/>
	</g>
	<g>
		<path fill="none" stroke="#2C3E50" stroke-width="6" stroke-miterlimit="10" d="M148.333,90.039c0,4.971-4.029,9-9,9h-90
			c-4.971,0-9-4.029-9-9v-25c0-4.971,4.029-9,9-9h90c4.971,0,9,4.029,9,9V90.039z"/>
	</g>
	<g>
		<path fill="#2C3E50" d="M148.333,41.539c0,1.925-1.8,3.5-4,3.5h-100c-2.2,0-4-1.575-4-3.5c0-1.925,1.8-3.5,4-3.5h100
			C146.533,38.039,148.333,39.614,148.333,41.539z"/>
	</g>
	<g>
		<path fill="#2C3E50" d="M120.833,114.539c0,1.925-1.8,3.5-4,3.5h-72.5c-2.2,0-4-1.575-4-3.5c0-1.925,1.8-3.5,4-3.5h72.5
			C119.033,111.039,120.833,112.614,120.833,114.539z"/>
	</g>
	<path fill="#2C3E50" d="M140.723,103.885c1.74,0,3.48,0,5.22,0c0.542,0.258,0.772,0.695,0.821,1.287
		c0.073,0.866,0.202,1.726,0.298,2.59c0.021,0.185,0.082,0.286,0.276,0.341c1.071,0.305,2.094,0.73,3.072,1.264
		c0.079,0.043,0.243,0.022,0.317-0.035c0.79-0.604,1.571-1.219,2.353-1.834c0.421-0.331,1.057-0.319,1.407,0.031
		c1.097,1.098,2.195,2.196,3.29,3.296c0.424,0.426,0.445,1.015,0.07,1.489c-0.61,0.773-1.211,1.553-1.825,2.322
		c-0.096,0.12-0.098,0.203-0.026,0.33c0.553,0.968,0.964,1.998,1.277,3.066c0.057,0.194,0.154,0.255,0.339,0.276
		c0.864,0.096,1.724,0.226,2.59,0.299c0.59,0.05,1.03,0.276,1.285,0.821c0,1.74,0,3.48,0,5.22c-0.251,0.532-0.675,0.768-1.258,0.818
		c-0.875,0.076-1.745,0.206-2.619,0.302c-0.187,0.021-0.281,0.085-0.338,0.277c-0.314,1.068-0.73,2.094-1.27,3.07
		c-0.043,0.078-0.023,0.244,0.034,0.318c0.597,0.783,1.206,1.556,1.815,2.33c0.374,0.475,0.347,1.064-0.074,1.488
		c-1.018,1.027-2.035,2.054-3.053,3.081c-0.611,0.615-1.113,0.65-1.801,0.117c-0.732-0.568-1.458-1.145-2.195-1.706
		c-0.074-0.056-0.238-0.074-0.318-0.03c-0.962,0.524-1.964,0.95-3.018,1.243c-0.243,0.068-0.315,0.189-0.339,0.417
		c-0.091,0.855-0.219,1.706-0.292,2.562c-0.049,0.583-0.287,1.006-0.818,1.257c-1.74,0-3.48,0-5.22,0
		c-0.543-0.257-0.772-0.695-0.822-1.287c-0.072-0.866-0.202-1.726-0.297-2.59c-0.021-0.186-0.086-0.281-0.278-0.336
		c-1.07-0.309-2.098-0.723-3.066-1.276c-0.131-0.075-0.212-0.063-0.33,0.031c-0.77,0.614-1.548,1.217-2.322,1.826
		c-0.475,0.374-1.062,0.36-1.492-0.068c-1.073-1.068-2.138-2.144-3.204-3.219c-0.452-0.456-0.474-1.028-0.077-1.532
		c0.604-0.765,1.205-1.533,1.795-2.309c0.056-0.074,0.074-0.239,0.03-0.318c-0.53-0.97-0.955-1.982-1.256-3.044
		c-0.056-0.199-0.149-0.279-0.352-0.301c-0.864-0.093-1.724-0.224-2.59-0.297c-0.592-0.05-1.029-0.28-1.285-0.824
		c0-1.74,0-3.48,0-5.22c0.235-0.42,0.528-0.733,1.059-0.783c0.942-0.09,1.879-0.226,2.819-0.332
		c0.188-0.021,0.282-0.083,0.338-0.276c0.305-1.071,0.729-2.095,1.263-3.073c0.044-0.08,0.029-0.244-0.027-0.318
		c-0.603-0.79-1.219-1.571-1.833-2.353c-0.333-0.424-0.326-1.053,0.026-1.407c1.09-1.092,2.18-2.183,3.275-3.27
		c0.459-0.456,1.031-0.474,1.531-0.078c0.764,0.605,1.532,1.206,2.308,1.796c0.074,0.056,0.238,0.073,0.318,0.03
		c0.978-0.536,2.002-0.956,3.072-1.267c0.193-0.056,0.256-0.153,0.277-0.339c0.097-0.873,0.226-1.744,0.302-2.619
		C139.955,104.559,140.192,104.136,140.723,103.885z M134.262,122.035c-0.011,4.997,4.035,9.066,9.063,9.074
		c4.916,0.008,9.066-3.882,9.085-9.054c0.019-5.038-4.013-9.066-9.049-9.087C138.336,112.948,134.273,117.006,134.262,122.035z"/>
	<g>
		<path fill="none" stroke="#34495E" stroke-width="7" stroke-miterlimit="10" d="M122.333,132.539h-73.5c-12.65,0-23-10.85-23-23.5
			V35.066c0-12.65,10.35-22.527,23-22.527h90c12.65,0,23,9.877,23,22.527v70.973"/>
	</g>
	<g>
		<g>
			<text transform="matrix(1 0 0 1 191.0113 77.6127)" fill="#34495E" font-family="'MyriadPro-Bold'" font-size="75">SIGEV</text>
			<text transform="matrix(1 0 0 1 177.4253 100.0658)"><tspan x="0" y="0" fill="#34495E" font-family="'MyriadPro-Bold'" font-size="19.1444">Sistema de Gerenciamento</tspan><tspan x="67.502" y="22.974" fill="#34495E" font-family="'MyriadPro-Bold'" font-size="19.1444">de Eventos</tspan></text>
		</g>
	</g>
</g>
</svg>
